<svg xmlns="http://www.w3.org/2000/svg" xmlns:xlink="http://www.w3.org/1999/xlink" clip-rule="evenodd" fill-rule="evenodd" image-rendering="optimizeQuality" preserveAspectRatio="xMidYMid meet" shape-rendering="geometricPrecision" text-rendering="geometricPrecision" version="1.0" viewBox="-8.3 -10.7 4557.5 2191.4" zoomAndPan="magnify" style="fill: rgb(163, 24, 24);" original_string_length="7767"><g id="__id10_sk243so2p"><path d="M972.47 809.09c-169.62,-17.52 -312.27,-107 -361.12,-277.51 -53.18,-161.96 31.21,-366.73 199.28,-415.09 85.61,-24.51 171.07,-37.03 254.95,-65.75 133.02,-37.43 276.18,-61.41 415.18,-46 84.22,13.05 160.27,54.03 239.94,82.49 78.52,29.12 156.58,61.27 230.16,102 72.11,41.9 140.02,90.79 210.84,134.94 49.12,31.49 97.94,64.96 137.16,108.44 42.3,-54.28 134.06,-35.18 183.93,2.11 12.39,9.33 22.61,20.26 30.83,32.29 47.24,-38.16 90.63,-80.39 138.13,-118.46 94.76,-72.22 205.21,-125.85 321.86,-152.74 110.46,-21.62 222.4,-32.81 328.89,-63.91 119.01,-34.78 238.75,-86.58 360.45,-108.04 96.46,-17.93 198.98,-28.74 295.8,-3.44 117.6,42.84 229.49,111.48 318.38,200.43 129.4,129.4 90.65,344.08 5.89,484.67 -114.16,172.9 -340.11,221.64 -537.25,209.79 -111.49,-2.1 -221.16,-24.24 -330.63,-45.2 -141.29,-24.38 -284.3,-43.09 -421.58,-86.31 -148.27,-46.8 -313.3,-132.35 -454.69,-198.6 -1.95,15.5 -5.63,30.79 -10.88,45.33 2.9,1.15 5.73,2.47 8.42,3.84 83.12,47.58 149.14,122.95 227.55,176.71 76.9,52.32 169.25,66.81 257.09,89.35 54.33,16.08 107.72,35.3 161.27,54.42 54.06,19.76 107.66,41.64 158.69,68.65 87.79,50.07 165.08,126.77 249.93,179.61 98.1,64.98 207.24,95.67 312.37,144.83 130.09,58.38 245.58,145.87 344.13,248.92 101.37,103.71 181.73,227.98 244.33,358.18 8.73,18.17 17.68,36.16 26.7,54.14 17.23,9.33 30.74,22.17 18.83,42.83 -1.36,2.03 -2.98,3.85 -4.82,5.42 -7.99,17.74 -36.53,23.94 -48.34,-0.28l-3.8 -7.65c-40.38,-19.56 -80.71,-39.71 -123.18,-53.49 -3.63,52.57 4.82,105.29 -7.1,156.81 -6.1,22.01 -34.62,27.95 -50.9,12.39 -68.59,-70.37 -112.86,-160.5 -164.61,-243.13 -46.69,-76.42 -85.19,-157.87 -140.07,-228.89 -51.85,-67.98 -123.26,-117.67 -201.66,-149.82 -75.25,-31.62 -148.91,-66.94 -221.29,-105.16 -98.8,-46.51 -186.16,-111.48 -274.65,-174.86 -118.38,-81.97 -256.67,-136.13 -398.29,-150.75 -212.59,-26.15 -374.8,-191.83 -473.28,-373.36 -31.47,11.65 -65.95,13.39 -97.41,2.65 -38.85,83.91 -283.71,255.7 -318.73,274.11 -162.04,95.27 -348.84,141.13 -518.09,219.15 -97.07,52.44 -183.22,125.59 -290.53,158.26 -93.09,32.15 -192.23,47.05 -284.81,80.25 -191.88,69.44 -334.08,164.2 -423.01,353.55 -26.17,49.68 -133.94,291.76 -201.5,212.95 -4.42,-7.37 -5.72,-15.94 -6.34,-23.85 -4.4,-58.64 2.43,-117.28 1.67,-175.92 -55.17,45.59 -109.84,91.71 -166.69,135.47 -31.46,18.31 -81.71,81.83 -115.98,37.95 -12.15,-25.57 7.42,-52.85 15.65,-76.57 15.79,-35.99 32.45,-70.23 48.79,-103.31 -0.33,0.38 -0.48,0.79 -0.64,1.17 0.01,0.13 0.01,0.13 0.01,0.13 172.6,-376.88 300.54,-525.91 716.04,-624.74 179.56,-33.07 347.23,-107.14 501.33,-202.28 97.22,-52.97 206.45,-78.93 312.65,-107.79 90.42,-23.07 174.8,-51.67 260.77,-84.47 67.56,-25.7 133.34,-59.17 187.64,-107.14 47.46,-41.64 85.19,-92.23 124.43,-141.26 2.87,-2.97 5.54,-6.25 8.14,-9.68 -103.65,46.65 -209.42,89.77 -324.57,98.37 -114.53,14.9 -232.59,5.28 -345.52,26.89 -180.15,37.95 -345.31,155.35 -536.11,125.96zm3470.46 1164.7c-29.95,-60.01 -61.28,-119.27 -99.83,-174.52 -95.03,-141.92 -219.54,-266.05 -366.31,-354.07 -107.36,-64.31 -231.65,-101.74 -341.98,-155.9 -104.2,-52.72 -191.13,-132.56 -285.63,-199.77 -79.85,-50.6 -170.45,-79.99 -258.76,-111.49 -102.34,-40.18 -215.07,-47.03 -313.46,-98.56 -101.38,-51.97 -173.01,-149.2 -272.67,-201.78 -9.2,13.56 -20.41,25.51 -32.98,35.54 22.04,45.36 53.3,87.05 83.28,127.5 48.75,60.48 102.07,116.88 169.17,156.03 57.42,33.46 123.43,56.13 188.4,64.82 71.56,7.9 141.31,26.36 209.49,49.81 110.3,40.85 208.46,109.25 302.83,178.82 68.78,50.86 145.94,88.68 221.8,127.43 91.59,50.08 193.92,79.59 280.53,138.76 115.7,79.2 179.01,213.08 246.84,329.03 41.62,69.46 81.94,140.36 129.95,205.84 3.51,-70.23 -23.34,-188.7 89.91,-138.37 16.83,6.13 33.19,13.32 49.42,20.88zm-2159.54 -1258.03c-5.8,-5.18 -11.33,-10.99-16.51,-17.49 -26.72,-37.37 -31.97,-84.2 -26.7,-128.96 -1.42,0.58 -2.96,1.06 -4.61,1.42 -65.33,82.48 -128.26,170.38 -219.31,226.92 -173.79,104.34 -375.47,140.2 -566.68,199.88 -96.48,26.49 -178.8,81.31 -265.02,129.03 -48.38,25.56 -98.8,47.43 -149.75,66.94 -101.85,42.82 -211.55,59.82 -317.6,88.03 -402.66,115.29 -475.78,311.11 -642.51,662.03 52.29,-39.52 102.38,-81.82 152.99,-123.33 23.56,-15.94 44.23,-47.31 75.18,-45.99 32.33,5.01 35.9,42.04 36.48,68.38 0.43,47.84 -4.27,95.55 -3.17,143.38 82.82,-95 113.04,-222.97 194.35,-319.03 126.32,-167.87 337.78,-243.77 536.64,-290.29 68.19,-17.4 136.36,-36.1 199.18,-67.87 70.21,-35.84 136.49,-89.6 205.74,-123.33 167.3,-76.3 350.46,-122.29 509.72,-214.93 94.5,-57.85 205.39,-147.06 280.85,-227.18 7.48,-7.05 13.7,-18.25 20.73,-27.58zm1363.31 22.19c-149.04,-13.05 -295.41,-45.46 -443.14,-69.46 -52.37,-7.11 -105.61,-6.31 -157.31,-12.52 -40.44,-5.79 -79.52,-19.1 -119.49,-26.61 0.5,0 0.67,0.13 1.16,0.13 -127.03,-11.23 -203.19,-37.32 -282.66,-51.72 111.71,53.32 232.69,111.06 340.75,148.16 109.42,37.95 223.98,56.27 337.57,75.77 123.82,17.93 245.55,50.09 370.53,58.24 187.95,15.57 407.37,-6.84 530.39,-163.78 79.9,-112.27 126.52,-310.6 26.79,-426.31 -80.44,-87.49 -185.94,-149.3 -294.49,-195.02 -72.97,-23.58 -151.25,-16.74 -225.87,-8.96 -139.62,17.27 -267.09,71.42 -399.23,112.67 -134.25,43.36 -279.91,45.46 -413.85,87.77 -104.27,35.85 -201.62,91.45 -282.78,165.78 -29.93,27.19 -60.68,54.01 -92.25,79.52 142.23,-44.51 337.48,-87.61 479.25,-118.92 85.1,-14.75 160.34,-56.25 239.2,-88.93 104.21,-39.54 215.22,-57.87 323.78,-83.7 177.59,-42.68 228.87,-52.3 405.54,13.44 168.38,43.89 243.06,226.39 124.96,359.62 -87.81,93.7 -340.68,155.36 -468.84,144.83zm65.82 -52.06c118.34,-14.75 287.63,-48.49 371.07,-136.52 81.18,-105.03 19.13,-232.06 -104.59,-264.47 -56.5,-17.27 -113.95,-42.04 -171.9,-46.52 -92.64,-2.11 -181.6,29.65 -271.45,47.05 -127.42,25.96 -253.58,58.11 -368.71,118.34 -53.38,23.06 -112.7,36.76 -169.24,47.96 -114.31,23.07 -224.54,52.55 -298.85,71.56 111.09,28.72 224.39,50.6 335.28,77.36 72.29,11.6 145.98,7.51 218.15,21.99 152.23,26.63 305.46,63.52 460.24,63.26zm-2747.93 -80.78c-166.72,-11.6 -222.8,-148.64 -92.09,-258.15 95.97,-79.99 226.89,-113.99 348.85,-119.27 56.5,-3.8 113.23,-3.54 169.72,2.91 77.24,11.33 154.44,30.18 232.39,33.86 169.45,8.96 343.29,32.53 501.25,97.34 -34.79,-21.98 -70.26,-43.09 -103.54,-66.63 -87.63,-61.29 -183.96,-108.07 -283.44,-145.49 -97.76,-32.68 -190.26,-88.02 -294.07,-96.33 -158.38,-6.98 -312.24,30.18 -460.67,76.44 -68.5,18.32 -140.18,23.98 -202.83,56.92 -84.13,44.15 -124.41,142.06 -132.55,233.37 -1.19,80.78 32.37,163.42 83.13,225.35 85.96,91.45 218.03,118.85 337.85,114.37 167.39,-19.1 312.5,-117.53 479.89,-136.64 124.96,-13.58 252.26,-5.8 376.06,-30.71 86.96,-17.18 167.17,-53.38 247.19,-89.97 -39.98,0.07 -79.9,2.38 -119.89,4.98 -83.43,5.26 -165.86,21.34 -249.53,21.46 -118.08,-0.38 -235.25,-26.07 -353.17,-16.98 -164.67,13.03 -316.36,104.1 -484.54,93.16zm57.04 -52.84c162.83,-14.24 311.46,-99.49 477.24,-94.74 98.36,-2.25 195.92,17.91 294.16,18.71 133.75,-2.36 262.13,-30.45 395.81,-26.35 -152.47,-82.64 -330.91,-114.25 -500.64,-128.89 0.16,0 0.16,0 0.33,0 0.33,0 0.82,0 1.32,0 -56.44,-3.42 -112.87,-5.66 -168.75,-14.62 -94.88,-18.19 -196.03,-35.33 -291.3,-26.5 -85.09,4.75 -163.76,18.19 -239.25,54.43 -174.79,83.28 -202.1,227.59 31.09,217.96zm1358.33 144.03c86.7,-7.52 135.1,-125.31 91.94,-197.66 -14.27,-20.4 -37.87,-36.06 -63.15,-42.88 -40.95,-11.05 -81.48,6.87 -95.69,47.36 -33.49,67.34 -39.66,199.37 66.91,193.18z" fill-rule="nonzero" style="fill: inherit;"/></g></svg>