<svg xmlns="http://www.w3.org/2000/svg" xmlns:xlink="http://www.w3.org/1999/xlink" preserveAspectRatio="xMidYMid meet" version="1.0" viewBox="-1.0 0.0 310.4 363.7" zoomAndPan="magnify" style="fill: rgb(163, 24, 24);" original_string_length="23054"><g id="__id9_sk243so2p"><path d="M294.969391,158.891113c-29.435059-67.517578-77.197754-89.266602-112.076172-95.621582 c-0.564697-0.104126-1.135193-0.197754-1.703369-0.295532c-2.917725-14.663208-11.495667-20.955933-19.701294-22.158203 c0.925171-12.893433,0.335388-22.686646-0.105591-29.974976c-0.18457-3.050781-0.34375-5.685547-0.34375-7.84082 c0-1.656738-1.343262-3-3-3s-3,1.343262-3,3c0,2.336426,0.164551,5.055176,0.35498,8.203125 c0.435669,7.199463,1.021545,16.898926,0.078674,29.626709c-9.058594,1.305908-18.292603,8.531006-20.747437,21.047607 c-1.321533,0.153564-2.587585,0.315552-3.811707,0.491211c-11.777832,1.647461-23.399414,4.600098-32.725098,8.313965 c-20.608948,8.210693-49.680908,24.25708-71.2276,54.083496c-0.008667,0.010498-0.015926,0.02179-0.02417,0.032715 c-0.024279,0.032181-0.047913,0.063965-0.071472,0.09668C8.021088,151.039551-0.987152,182.453491,0.085663,218.260986 c-0.008301,0.166992-0.002502,0.332764,0.017029,0.499023c0.212341,6.960693,0.826538,14.236328,1.833984,21.63501 c4.49707,32.991211,22.474121,61.493164,53.430664,84.713867c33.761719,25.354492,70.837402,35.112305,75.006836,36.154297 c7.013672,1.619141,14.606934,2.394043,22.53125,2.393555c32.310059-0.001953,70.026367-12.887207,95.435547-33.924805 c2.628906-2.17334,5.250488-4.530762,7.793457-7.008301c0.049805-0.04248,0.098145-0.086426,0.145508-0.132324 c18.972656-18.436035,34.52002-43.339355,42.655762-68.325195C309.456207,221.955566,308.085114,188.975586,294.969391,158.891113z M253.40799,316.996094c-0.893188-0.379883-2.105835-0.925781-3.295044-1.461426 c-2.8703-1.292603-6.906921-3.108643-11.889832-5.115967c8.911621-11.559814,16.441467-23.012085,22.565918-34.31311 c8.341248,2.608765,14.379761,4.932129,17.75116,6.230347c0.456482,0.175781,0.829407,0.318848,1.168579,0.44812 C272.069489,295.935791,262.918732,307.528687,253.40799,316.996094z M11.135773,255.022217l0.925415-0.516846 c4.710571-2.631836,11.844177-6.616455,21.744568-10.935547c1.444702,5.461426,3.282776,11.001587,5.590881,16.606934 c2.330627,5.660889,5.002441,11.237549,7.959229,16.717285c-9.135681,3.530518-16.582825,7.181152-20.934387,10.248047 C19.49942,277.081787,14.395233,266.361816,11.135773,255.022217z M7.881989,239.584961 c-0.937683-6.884033-1.515076-13.644409-1.74469-20.138916c4.179626-4.653564,12.415833-9.704712,23.588196-14.487549 c-0.493347,10.395508,0.234436,21.344971,2.662781,32.682861c-10.332458,4.450806-17.814697,8.588867-22.795959,11.37085 C8.891388,245.912842,8.316315,242.771729,7.881989,239.584961z M31.322113,128.98645 c9.691162-5.100952,20.836243-9.551147,33.003906-13.254517c-6.344482,8.422241-12.27124,17.669189-17.392761,27.623047 c-2.188782,4.253906-4.344543,8.873047-6.353455,13.814941c-11.201782,4.585083-21.124084,9.759766-29.621887,15.429932 C15.131073,156.734619,21.933746,142.158569,31.322113,128.98645z M257.793854,268.953369 c-8.039429-2.351562-16.249512-4.371704-24.497375-6.033691c3.005188-10.944946,5.222656-22.93335,6.138428-35.837158 c13.556641,2.124023,23.769653,4.439941,31.589783,6.701172C268.296356,245.265137,263.894684,256.994385,257.793854,268.953369z M190.663239,297.443848c-1.977112-0.268066-3.930054-0.510132-5.866211-0.734497 c1.675964-7.702393,6.183411-30.675171,6.642517-33.187378c5.611816,0.378906,11.307922,0.88623,16.979065,1.52832 c5.757019,0.657837,11.544067,1.510254,17.256897,2.519531c-4.096008,13.082275-9.264099,24.470215-14.420044,33.933838 C204.847565,299.859375,197.940765,298.430664,190.663239,297.443848z M208.190582,306.919678 c-0.508728,0.865234-1.015991,1.717896-1.519043,2.543701c-13.030762,21.390869-28.118896,36.449951-39.143005,43.645996 c5.399597-10.142578,10.437622-26.079102,15.964294-50.510864c2.097412,0.238647,4.216309,0.499512,6.36377,0.790649 C196.291107,304.261719,202.434784,305.494873,208.190582,306.919678z M95.891693,302.493774c-1.856934-3.594482-3.615906-7.296997-5.263672-11.087036c3.208557,1.414551,7.033997,2.82959,10.410217,2.82959 c1.983398,0,3.8125-0.489258,5.267578-1.753906c0.055298-0.047119,0.11969-0.104004,0.19281-0.170288 c0.146301-0.132568,0.327515-0.302734,0.5401-0.507935c0.160034-0.154541,0.974182-0.964844,1.220947-1.216797 c0.601501-0.61377,1.304749-1.349121,2.084045-2.187744c0.83844,3.371338,1.759277,6.726196,2.750916,10.046631 C106.99704,299.58667,101.26236,300.952515,95.891693,302.493774z M109.663239,280.155273 c-3.854492,4.487305-6.769531,7.351562-7.272461,7.780273c-0.083435,0.072754-0.194763,0.141724-0.343201,0.19873 c-0.222656,0.085449-0.528748,0.143677-0.949097,0.146484c-1.54126,0.010254-4.618958-0.725708-10.755066-3.605957 c-0.530273-0.249023-4.124298-1.918457-4.124298-1.918457c-4.434082-2.123535-8.408417-4.371582-11.766815-6.651855 c-0.221191-0.155762-0.425621-0.286285-0.632324-0.423828c-2.072594-1.379272-3.891113-2.867188-5.489746-4.295898 c-7.617676-6.821289-10.72998-14.134766-8.763184-20.594238c1.709961-5.616211,7.19873-10.003906,13.672363-10.938965 c0.032715-0.003906,0.064941-0.007812,0.097168-0.012695c0.917969-0.132324,1.875488-0.188477,2.848145-0.160156 c5.681641,0.160156,10.615234,3.133301,13.891113,8.37207c0.6875,1.100586,2.008301,1.633789,3.264648,1.321289 c1.259277-0.312012,2.175781-1.398438,2.270996-2.692383c0.372559-5.075684,4.980469-12.102539,11.791016-14.61084 c1.138184-0.426758,2.359375-0.719238,3.696289-0.878418c0.078613-0.009766,0.153809-0.020996,0.32373-0.033203 c2.96582-0.269043,6.086426,0.319824,9.270996,1.755859c3.921875,1.773438,6.349121,4.177246,7.42041,7.350098 c1.623047,4.807617,0.079025,11.750656-4.413391,20.118469c-0.471146,0.877563-0.970459,1.756531-1.476746,2.616882 c-0.020508,0.035156-0.040527,0.070312-0.05957,0.105957c-0.039062,0.057129-0.07666,0.116211-0.112793,0.177246 c-0.421875,0.719727-0.863281,1.439453-1.31543,2.151367C116.987457,271.341309,112.648102,276.697266,109.663239,280.155273z M45.213043,161.774658c11.224243-4.446655,23.441833-8.215698,36.430603-11.21875 c-5.037842,12.090332-8.593384,23.88501-10.643677,35.178711c-12.484497,2.87793-24.265381,6.320801-34.465515,10.070679 C38.056732,183.37146,41.283051,171.910034,45.213043,161.774658z M131.999908,103.885742l-3.437256,8.204102 c-3.667114,8.743408-6.946655,17.554688-9.795837,26.226196c-8.976318,0.925049-17.964233,2.245361-26.818481,3.940063 c5.826294-12.101929,13.069885-24.405762,21.566711-36.66394C119.598053,104.858154,125.769745,104.284546,131.999908,103.885742z M103.371918,227.273804c-5.811035,2.77417-9.976685,7.747925-12.121277,12.711548 c-4.054688-3.943848-9.186035-6.143555-14.902344-6.304688c-0.258179-0.00647-0.511658,0.009277-0.768311,0.010986 c-0.129272-1.296997-0.243286-2.566162-0.343811-3.818848c8.506836-2.039062,17.882996-3.869873,28.17511-5.348633 C103.391876,225.434814,103.381989,226.353027,103.371918,227.273804z M74.84317,223.797119 c-0.423462-8.661865-0.245911-17.377197,0.533936-25.959229c0.204346-2.279053,0.494324-4.665405,0.858398-7.109741 c10.004456-2.180054,20.356201-3.983398,30.866516-5.394653c-1.837769,11.099243-3.003479,22.201782-3.483093,33.09668 C93.118805,219.904541,83.547943,221.743896,74.84317,223.797119z M116.764252,144.559326 c-3.556152,11.525635-6.425598,23.123535-8.563354,34.570068c-10.48291,1.357422-20.818115,3.116089-30.843628,5.231201 c2.271301-11.329102,6.136292-23.200928,11.503113-35.373901C98.044159,147.093872,107.402252,145.605957,116.764252,144.559326z M205.026031,145.339722c0.023499,0.033081,0.045532,0.066528,0.070312,0.098755 c5.163879,7.126709,11.522156,12.346191,19.889648,15.180664c-19.463379,10.144043-24.741211,22.865723-28.189941,43.204102 c-2.101746-10.007202-4.651001-17.082031-16.959656-26.961182c-0.197388-0.216919-0.432739-0.394775-0.686401-0.546631 c-4.905701-3.865479-11.292908-8.165283-19.720642-13.237305c24.009277-8.799316,26.005371-22.608887,28.914551-42.723145 c0.434082-2.999023,0.89502-6.186523,1.460938-9.554688C194.068268,124.663574,198.628998,136.470703,205.026031,145.339722z M150.481354,164.742432c0.062561,0.042969,0.121399,0.090088,0.187744,0.128662c7.036743,4.087646,12.752014,7.61377,17.435364,10.768188c-6.214172-0.088989-12.52301-0.02832-18.873535,0.170654 C149.598297,172.109375,150.017181,168.418823,150.481354,164.742432z M151.348785,159.393066 c-0.056946,0.016357-0.109436,0.04126-0.164795,0.060791c0.047974-0.342163,1.651245-11.782227,2.302734-16.671997 c7.824402,0.076172,15.426575,0.327026,22.687378,0.74939C172.169159,150.405762,165.140106,155.436279,151.348785,159.393066z M145.385406,157.577637c-0.873779,6.112549-1.601379,12.279297-2.203369,18.467041 c-9.587158,0.441895-19.216675,1.222656-28.732239,2.321533c2.209778-11.415283,5.166626-22.9729,8.806824-34.44812 c8.184753-0.739136,16.304138-1.133423,24.180603-1.157837C146.815948,147.404419,146.135651,152.329346,145.385406,157.577637z M113.326263,184.533936c9.696777-1.163696,19.525452-1.983643,29.311951-2.45459 c-0.926208,11.037964-1.463989,22.109375-1.68988,33.033936c-11.195923,0.460205-21.610962,1.338135-31.289062,2.526489 C110.184479,206.73938,111.415558,195.631836,113.326263,184.533936z M148.678253,181.828613 c9.455078-0.313232,18.825928-0.311523,27.911072,0.022461c11.616821,9.441162,12.906494,15.892944,15.099792,27.002441 c0.196289,0.993896,0.401306,2.02832,0.619446,3.099609c-0.083557,1.284424-0.18158,2.598633-0.289001,3.929565 c-16.207031-1.082031-31.210144-1.344727-45.070129-0.970337C147.182892,203.967163,147.731659,192.877686,148.678253,181.828613z M197.33316,223.610718c0.016357,0.000244,0.031921,0.004028,0.04834,0.004028c0.062012,0,0.124512-0.001953,0.187012-0.005859 c0.878357-0.054321,1.655334-0.487671,2.170105-1.141357c1.738586,0.142334,3.489319,0.293213,5.255188,0.454834 c10.754089,0.985107,20.190369,2.091064,28.490906,3.271118c-0.877319,12.837646-3.093628,24.741943-6.101196,35.587524 c-6.049255-1.083374-12.183655-1.994873-18.286682-2.692139c-5.542603-0.627441-11.107544-1.128784-16.597229-1.509277 C194.697784,244.96582,196.294037,233.740112,197.33316,223.610718z M205.54068,216.947754 c-1.538147-0.140747-3.059692-0.269775-4.577576-0.39624c1.895203-13.835449,3.554993-24.052979,7.50061-32.148682 c8.088989,1.010742,16.067322,2.311035,23.791748,3.875732c0.833374,6.666626,1.387817,13.67627,1.585022,21.102783 c0.09729,3.66748,0.070312,7.264526-0.050842,10.80127C225.508209,219.013062,216.150604,217.919678,205.54068,216.947754z M211.822479,178.788574c3.678528-5.029175,8.801392-9.195801,16.256104-13.022217 c1.29657,5.147095,2.39856,10.554321,3.293701,16.221191C224.987335,180.739746,218.448029,179.669189,211.822479,178.788574z M215.199127,147.881714c2.670837,0.462036,5.288513,0.955688,7.851868,1.474731 c0.555664,1.536621,1.093933,3.098633,1.615479,4.685059C221.112946,152.529419,217.988922,150.461792,215.199127,147.881714z M209.162933,140.833984c-6.00769-8.692749-10.309998-20.58667-14.582153-34.956299 c2.014282,0.268555,4.020508,0.562256,6.020813,0.872803c7.290466,10.437256,14.25116,22.192139,19.910034,35.994751 C216.817657,142.049805,213.02298,141.410889,209.162933,140.833984z M182.483246,118.963623 c-0.055847-0.160645-3.412109-9.817505-5.119873-14.872803c2.485657,0.186157,4.965881,0.406494,7.440491,0.652832 C183.814301,109.870117,183.113007,114.611572,182.483246,118.963623z M176.650055,120.455566 c1.322998,3.805664,2.588562,7.448608,3.789795,10.98877c-0.463745,2.210449-0.996338,4.286621-1.652954,6.235718 c-7.818787-0.497437-16.041199-0.797485-24.514343-0.891846c1.771973-13.75,2.970703-24.726074,3.790344-33.547974 c4.277893,0.061523,8.558228,0.20752,12.831909,0.439087C172.894196,109.650146,174.801361,115.137939,176.650055,120.455566z M158.582611,97.357544c1.000366-12.021973,1.221741-19.337769,1.367737-24.17688 c0.056274-1.869385,0.102844-3.335815,0.177185-4.552979c2.681152,9.643555,5.521606,19.041504,8.784119,29.047974 C165.470123,97.514771,162.025543,97.411133,158.582611,97.357544z M153.952789,73 c-0.145813,4.835815-0.368774,12.177246-1.387817,24.311646c-3.81134,0.008667-7.615112,0.086914-11.406311,0.222412 c7.032898-16.835571,10.206299-24.369751,13.006409-29.714478C154.067352,69.234497,154.016205,70.898804,153.952789,73z M152.040314,103.204346c-0.826721,8.823975-2.034363,19.807617-3.815125,33.564575c-7.459534-0.00415-15.160645,0.322266-22.935547,0.958862c2.607666-7.727295,5.547241-15.546875,8.805237-23.315186 l4.557617-10.883789C143.097748,103.333008,147.563873,103.22168,152.040314,103.204346z M35.888885,202.458984 c9.934998-3.817993,21.608154-7.350586,34.091125-10.322388c-0.232422,1.762085-0.428589,3.490112-0.578491,5.161743 c-0.840088,9.243774-0.996338,18.63916-0.483826,27.961914c-12.059875,3.116089-22.301514,6.611816-30.877014,10.036743 C35.710052,223.877441,35.164093,212.864746,35.888885,202.458984z M69.339813,231.353394 c0.088135,1.031616,0.183044,2.073364,0.289795,3.135742c-7.512817,2.014526-13.682373,7.589722-15.802307,14.553833 c-1.388855,4.561035-2.090271,13.242065,6.854187,23.182251c-2.636292,0.838501-5.190002,1.697388-7.650818,2.571045 c-2.933228-5.375-5.65625-11.001587-8.086182-16.903687c-2.3172-5.627441-4.148376-11.190308-5.554993-16.668701 C47.681793,237.872437,57.617584,234.434082,69.339813,231.353394z M133.798492,238.344238 c-1.610352-4.769531-5.1875-8.436035-10.635742-10.899414c-4.143066-1.868164-8.275879-2.628418-12.196777-2.269531 c-0.209961,0.013184-0.409668,0.036133-0.639648,0.06543c-0.31366,0.037109-0.623047,0.088135-0.932739,0.138184 c0.010315-0.561035,0.027832-1.109375,0.041748-1.665283c9.694153-1.217773,20.149597-2.12207,31.420471-2.594482 c-0.132263,12.45166,0.119263,24.662109,0.629944,36.36084c-3.353394,0.219482-6.722717,0.483154-10.086548,0.794678 C134.810822,250.445312,135.625214,243.755005,133.798492,238.344238z M146.851349,220.91626 c13.708801-0.378662,28.565186-0.124878,44.630066,0.943481c-1.037903,10.460693-2.6922,22.135742-5.009094,35.353882 c-12.982544-0.69165-26.072998-0.716675-39.003357-0.074219C146.961517,245.483521,146.713043,233.318604,146.851349,220.91626z M239.765472,221.067627c0.146912-3.872803,0.179871-7.819702,0.073059-11.845459 c-0.182434-6.870117-0.65979-13.39209-1.370972-19.624756c12.472473,2.803101,24.445068,6.35791,35.682251,10.591064 c0.539185,9.058838-0.082642,18.304443-1.85968,27.723633C264.166779,225.588379,253.632965,223.2229,239.765472,221.067627z M280.441498,202.68042c6.733643,2.758545,13.292419,5.815674,19.565918,9.137207 c-0.03894,8.962646-1.037903,17.730713-2.825012,26.215088c-3.761047-2.082764-9.227295-5.091064-19.008484-8.315186 C280.276215,219.159912,280.719391,210.094482,280.441498,202.68042z M237.644745,183.273926 c-1.032837-7.095947-2.385132-13.788086-4.013367-20.105225c0.58075-0.250366,1.156128-0.501221,1.760376-0.749756 c1.260254-0.518555,2.012695-1.820801,1.83252-3.171387s-1.248047-2.409668-2.600098-2.57959 c-1.014038-0.127319-1.990295-0.298584-2.949829-0.489624c-0.543457-1.80188-1.105103-3.577759-1.691162-5.318359 c12.917358,3.002686,24.402161,6.796265,34.947815,11.522583c3.00531,7.033936,5.439941,14.345703,7.032043,21.857178 l0.093262,0.439941c0.624695,2.935059,1.10553,5.894165,1.473938,8.871582 C262.187103,189.429565,250.144257,185.987061,237.644745,183.273926z M227.578461,144.17981 c-5.262939-13.741333-11.786804-25.537354-18.739197-36.021973c8.510254,1.5896,16.85083,3.572876,24.923401,5.980469 c9.608398,11.134521,19.709045,24.836426,27.397583,40.133789C250.94693,150.171631,239.876251,146.844116,227.578461,144.17981z M204.130219,101.31958c-6.133667-8.582642-12.440857-16.30249-18.379089-23.564697 c-2.577454-3.1521-5.050964-6.18689-7.424561-9.176025c1.096436,0.17395,2.187805,0.357422,3.271301,0.55542 c5.323242,1.883789,24.846252,15.73291,44.275818,36.272949c0.164246,0.173584,0.331726,0.354492,0.496826,0.530029 C219.109222,104.09375,211.677277,102.556152,204.130219,101.31958z M169.865997,67.486084 c3.502686,4.598877,7.261658,9.200684,11.240112,14.06665c4.744934,5.802856,9.731567,11.909424,14.668823,18.524414 c-0.995911-0.133301-1.994263-0.258057-2.993042-0.38147l-0.63916-2.244507c-0.371582-1.313965-1.561523-2.224121-2.950195-2.183105 c-1.365723,0.029297-2.539551,0.977051-2.85498,2.305664c-0.109253,0.459717-0.205933,0.906494-0.309753,1.360596 c-3.548462-0.358154-7.110352-0.653198-10.679626-0.891235c-3.527954-10.714722-6.559692-20.670044-9.403931-30.891235 C167.256622,67.248535,168.565216,67.356445,169.865997,67.486084zM134.569,97.742676l-0.037781,0.090332 c-5.525757,0.304688-11.012878,0.739502-16.437866,1.302979c13.510498-18.522827,25.355164-30.58606,27.127502-31.958252 c0.102112-0.061523,0.190369-0.137207,0.282654-0.208984c0.805908-0.044434,1.607361-0.074097,2.409607-0.106445 C145.129791,72.45874,141.779083,80.479736,134.569,97.742676z M131.930878,68.2854 c1.350098-0.191895,2.743164-0.368164,4.223206-0.533203c-6.204651,6.544312-16.091858,18.086914-26.108398,32.316895 c-10.095886,1.297119-19.925598,3.039795-29.34375,5.183105C99.54776,84.455811,119.724762,71.177979,131.930878,68.2854z M105.522919,106.657959c-8.292603,12.415527-15.292236,24.86084-20.888245,37.092529 c-12.819763,2.766357-24.96814,6.250122-36.231934,10.386963c1.259094-2.807129,2.555725-5.491821,3.865479-8.037354 c6.293579-12.231934,13.80365-23.342773,21.770874-33.109131C84.038788,110.381592,94.602936,108.254639,105.522919,106.657959z M8.9487,181.348877c7.989136-6.009644,17.63147-11.513672,28.712524-16.417114 c-3.510193,10.088745-6.269775,21.286011-7.45636,33.326782c-10.405701,4.23291-18.604858,8.698486-24.199158,13.160156 C6.074554,200.975464,7.056,190.943115,8.9487,181.348877z M65.623322,276.972656 c1.470642,1.233154,3.08551,2.463989,4.825562,3.671387c0.035156,0.024414,0.070801,0.04834,0.106934,0.071289 c0.149902,0.094727,0.29248,0.189941,0.487793,0.32666c3.365234,2.285156,7.25177,4.498779,11.521301,6.595825 c2.259338,5.71936,4.775269,11.292603,7.498474,16.641479c-4.587524,1.490967-8.895813,3.097412-12.919861,4.783691 c-7.509033-8.530029-14.728088-18.187744-21.101868-28.972534C59.096283,279.022705,62.309845,277.981445,65.623322,276.972656z M92.896698,309.665649c8.027527,14.565796,17.680115,27.262817,28.045654,37.116821 c-11.492126-7.358154-25.784363-18.344971-39.509766-32.991333C85.031342,312.34021,88.846832,310.954102,92.896698,309.665649z M91.983551,332.441895c8.234985,7.233765,16.236816,13.1521,23.303589,17.807129 c-13.553406-4.903564-33.440796-13.55957-52.695251-27.294434c3.880066-2.250244,8.184448-4.489868,12.927063-6.636353 C80.66452,321.938965,86.161896,327.328003,91.983551,332.441895z M98.790253,307.913086 c5.041687-1.406372,10.406921-2.654663,16.104492-3.698242c7.247925,22.00708,16.835083,39.036377,25.193115,50.003296 C124.958405,344.807251,110.264679,328.370117,98.790253,307.913086z M119.054291,297.424438 c-1.445923-4.783081-2.736938-9.647095-3.850159-14.520386c3.037415-3.59082,7.052856-8.668335,10.59729-14.255615 c0.489258-0.77002,0.967773-1.550293,1.425781-2.330566c0.019531-0.03418,0.038574-0.067871,0.057129-0.102539 c0.038574-0.056152,0.075195-0.114258,0.110352-0.173828c0.301575-0.512207,0.572205-0.981445,0.822998-1.424805 c4.506897-0.463867,9.044678-0.846313,13.553223-1.1427c0.575867,11.127075,1.372375,21.72522,2.276184,31.554688 C135.141266,295.377441,126.820587,296.214355,119.054291,297.424438z M147.753265,263.132568 c12.480774-0.620728,25.114441-0.609741,37.651428,0.032959c-0.415771,2.262573-4.901428,25.087402-6.611206,32.910645 c-10.156921-0.966187-19.73407-1.338135-28.742737-1.212402C149.137665,284.991455,148.332428,274.332031,147.753265,263.132568z M177.477509,301.978882c-6.744507,29.656372-12.718994,46.394653-19.275818,54.598755 c-1.204956-6.666748-4.754456-27.478027-7.575195-55.718262C159.058563,300.759277,168.003571,301.103027,177.477509,301.978882z M211.795563,312.584961c0.796692-1.307861,1.601868-2.667603,2.410889-4.071045 c5.157898,1.456299,9.932922,3.031006,14.236206,4.589111c-0.956482,1.176514-1.916687,2.353516-2.902954,3.533691 c-13.090149,15.662476-24.436523,24.543945-43.977295,33.146362C191.27359,341.116089,202.053986,328.576904,211.795563,312.584961z M217.198944,303.125488c5.179688-9.672607,10.323975-21.224487,14.40564-34.427856 c7.841614,1.565308,15.65033,3.466431,23.308716,5.670166c-6.086426,11.07959-13.590698,22.348022-22.523926,33.789673 C227.855194,306.469604,222.757111,304.736206,217.198944,303.125488z M282.662079,277.484131 c-0.476379-0.17395-1.22937-0.463745-1.965637-0.747314c-3.296875-1.269653-9.090332-3.5-17.080688-6.032715c5.999756-11.89502,10.429626-23.613525,13.252319-35.102295c8.979919,3.012573,14.011536,5.798706,17.505615,7.733643 c0.486877,0.269897,0.942383,0.520508,1.38501,0.760132C292.706879,255.920898,288.172882,267.13562,282.662079,277.484131z M279.97934,196.022705c-0.572205-5.578125-1.467224-9.833984-2.054382-12.592041l-0.092285-0.435547 c-1.203247-5.677002-2.877136-11.279297-4.926575-16.778564c7.293091,3.779541,12.869995,7.408936,17.20343,10.232666 c2.215027,1.443237,4.137695,2.692139,5.907104,3.726074c2.183472,8.366455,3.422485,16.657959,3.836853,24.80957 C293.45285,201.720459,286.798248,198.715698,279.97934,196.022705z M293.386627,171.422974 c-5.599731-3.648438-13.217407-8.606201-23.920044-13.577026c-6.502502-14.487549-15.437195-28.103027-25.136414-40.252075 c10.072144,3.58728,19.631592,7.885864,28.473755,12.946411c5.995972,8.960083,11.608826,19.149658,16.665466,30.748291 C290.944794,164.672852,292.23996,168.051392,293.386627,171.422974z M264.835785,119.610962 c-8.764832-4.18396-18.069946-7.737183-27.76239-10.691772c-13.162109-15.033813-26.934448-27.253052-37.480774-35.273682 C220.799042,80.515625,244.452789,93.963989,264.835785,119.610962z M158.064117,46.602539 c6.341431-0.174927,13.719543,3.889404,16.741394,15.413818c-5.518433-0.707275-11.162659-1.132935-16.872253-1.256104 c-1.648987-0.029297-3.277283-0.039673-4.890686-0.029785c-0.018127-0.000244-0.034973-0.005371-0.053162-0.005371 c-0.030212,0-0.059021,0.005371-0.08905,0.006226c-3.902649,0.030396-7.878845,0.206299-11.866394,0.525024 C143.625519,51.852173,151.169769,46.783081,158.064117,46.602539z M100.408844,76.256836 c2.297119-0.914795,4.748352-1.779053,7.309021-2.589111c-11.701416,7.898926-24.851746,19.496582-37.016663,34.049072 c-11.120728,2.970703-21.535461,6.527588-30.960632,10.606323C59.274323,95.946533,82.976532,83.201538,100.408844,76.256836z M29.944061,291.99939c3.375732-2.356323,10.067444-5.888916,20.377869-9.819458 c5.984436,10.273682,13.027832,20.14917,21.031372,29.44165c-5.183716,2.420166-9.835632,4.943604-13.993713,7.456421 C46.481781,310.723389,37.335236,301.684082,29.944061,291.99939z M150.909515,357.660156 c-8.867554-9.030029-21.129761-27.824463-30.026001-54.451294c7.383423-1.114868,15.287842-1.880737,23.733887-2.198975 c2.850647,28.718384,6.461975,49.893677,7.688599,56.67981C151.837555,357.686279,151.375397,357.669189,150.909515,357.660156z M244.516266,325.109375c-15.000732,12.419189-34.439331,21.875732-54.357605,27.324707 c16.821899-8.175293,27.63855-17.17749,39.984558-31.949707c1.435608-1.717773,2.835938-3.433105,4.211304-5.146484 c5.644531,2.224121,10.174683,4.262695,13.294556,5.66748l1.049072,0.471436 C247.313324,322.734375,245.916473,323.951416,244.516266,325.109375z" style="fill: inherit;"/></g></svg>